# xmcd
#
# Track frame offsets: 
#        150
#        80610
#        138223
#        209965
#
# Disc length: 4689 seconds
#
# Revision: 5
# Processed by: cddbd v1.5.2PL0 Copyright (c) Steve Scherf et al.
# Submitted via: ExactAudioCopy v1.3
#
DISCID=38124f04
DTITLE=Yoel Levi: Atlanta Symphony Orchestra - Mahler - Symphony 6
DYEAR=1998
DGENRE=Classical
TTITLE0=I. Allegro energico, ma non troppo: Heftig, aber markig - Symp
TTITLE0=hony No.6 in A minor“Tragic”
TTITLE1=II. Scherzo: Wuchtig - Symphony No.6 in A minor“Tragic”
TTITLE2=III. Andante moderato - Symphony No.6 in A minor“Tragic”
TTITLE3=IV. Finale: Allegro moderato - Symphony No.6 in A minor“Tragic
TTITLE3=”
EXTD=Telarc:80444, 1998\nYoel Levi - Atlanta Symphony Orchestra\n
EXTT0=
EXTT1=
EXTT2=
EXTT3=
PLAYORDER=
